<svg width="16" height="16" viewBox="0 0 16 16" fill="none" xmlns="http://www.w3.org/2000/svg">
<path d="M9.60002 10.3999H6.40002V15.9999H9.60002V10.3999Z" fill="#B8CCD7"/>
<path d="M15.76 7.44L8.56 0.24C8.24 -0.08 7.76 -0.08 7.44 0.24L0.24 7.44C-0.08 7.76 -0.08 8.24 0.24 8.56C0.56 8.88 1.04 8.88 1.36 8.56L1.6 8.32V15.2C1.6 15.68 1.92 16 2.4 16H4.8V14.4H3.2V6.72L8 1.92L12.8 6.72V14.4H11.2V16H13.6C14.08 16 14.4 15.68 14.4 15.2V8.32L14.64 8.56C14.96 8.88 15.44 8.88 15.76 8.56C16.08 8.24 16.08 7.76 15.76 7.44Z" fill="#54626C"/>
</svg>
