<svg width="16" height="16" viewBox="0 0 16 16" fill="none" xmlns="http://www.w3.org/2000/svg">
<path d="M6.22222 12.4444C2.75556 12.4444 0 9.68889 0 6.22222C0 2.75556 2.75556 0 6.22222 0C9.68889 0 12.4444 2.75556 12.4444 6.22222C12.4444 9.68889 9.68889 12.4444 6.22222 12.4444ZM6.22222 1.77778C3.73333 1.77778 1.77778 3.73333 1.77778 6.22222C1.77778 8.71111 3.73333 10.6667 6.22222 10.6667C8.71111 10.6667 10.6667 8.71111 10.6667 6.22222C10.6667 3.73333 8.71111 1.77778 6.22222 1.77778Z" fill="#FAFAFC"/>
<path d="M14.4889 15.7334L11.8222 13.0668C11.4667 12.7112 11.4667 12.1779 11.8222 11.8223C12.1778 11.4668 12.7111 11.4668 13.0667 11.8223L15.7333 14.489C16.0889 14.8446 16.0889 15.3779 15.7333 15.7334C15.3778 16.089 14.8444 16.089 14.4889 15.7334Z" fill="#D3D4D8"/>
</svg>
