<svg width="18" height="16" viewBox="0 0 18 16" fill="none" xmlns="http://www.w3.org/2000/svg">
<path d="M2.66667 4.44428H0.888889C0.355556 4.44428 0 4.08873 0 3.55539C0 3.02206 0.355556 2.6665 0.888889 2.6665H2.66667V4.44428Z" fill="#54626C"/>
<path d="M16.8889 4.44428H9.77783V2.6665H16.8889C17.4223 2.6665 17.7778 3.02206 17.7778 3.55539C17.7778 4.08873 17.4223 4.44428 16.8889 4.44428Z" fill="#54626C"/>
<path d="M7.11112 0H5.33335C4.80001 0 4.44446 0.355556 4.44446 0.888889V6.22222C4.44446 6.75556 4.80001 7.11111 5.33335 7.11111H7.11112C7.64446 7.11111 8.00001 6.75556 8.00001 6.22222V0.888889C8.00001 0.355556 7.64446 0 7.11112 0Z" fill="#B8CCD7"/>
<path d="M12.4445 8.88867H10.6667C10.1334 8.88867 9.77783 9.24423 9.77783 9.77756V15.1109C9.77783 15.6442 10.1334 15.9998 10.6667 15.9998H12.4445C12.9778 15.9998 13.3334 15.6442 13.3334 15.1109V9.77756C13.3334 9.24423 12.9778 8.88867 12.4445 8.88867Z" fill="#B8CCD7"/>
<path d="M16.8889 13.3334H15.1111V11.5557H16.8889C17.4222 11.5557 17.7778 11.9112 17.7778 12.4446C17.7778 12.9779 17.4222 13.3334 16.8889 13.3334Z" fill="#54626C"/>
<path d="M8 13.3334H0.888889C0.355556 13.3334 0 12.9779 0 12.4446C0 11.9112 0.355556 11.5557 0.888889 11.5557H8V13.3334Z" fill="#54626C"/>
</svg>
